#tb 0: 1/1
#media_type 0: video
#codec_id 0: fits
#dimensions 0: 72x36
#sar 0: 0/1
0,          0,          0,        1,    17280, 0xce314424
0,          1,          1,        1,    17280, 0x9f39e27b
0,          2,          2,        1,    17280, 0x41050a8b
0,          3,          3,        1,    17280, 0x3ef99929
0,          4,          4,        1,    17280, 0x81e63c7a
